<svg width="208" height="176" viewBox="0 0 208 176" fill="none" xmlns="http://www.w3.org/2000/svg">
<path d="M44.9306 0.288015C37.8867 1.50249 32.7454 6.88664 30.9642 14.9831C30.0331 19.1933 30.3165 28.5447 31.5309 34.4551C33.1098 41.7824 35.7816 50.4457 38.6558 57.4086C38.8987 57.9754 38.332 58.2587 35.3363 59.1898C22.7058 62.9952 12.7066 68.3389 6.67478 74.4922C-2.02893 83.2768 -2.19086 93.4379 6.14851 102.506C10.7635 107.526 21.127 113.355 31.8953 116.999C35.0529 118.051 37.6438 119.063 37.6438 119.185C37.6438 119.347 36.7532 122.099 35.6197 125.338C31.7334 136.714 30.2355 144.284 30.2355 152.259C30.276 160.598 32.0167 165.739 36.2269 170.071C42.0564 176.062 52.0555 176.953 63.1477 172.459C73.1468 168.411 85.0486 160.598 95.736 151.044C97.7601 149.223 99.6223 147.603 99.9057 147.441C100.23 147.239 101.646 148.211 103.954 150.316C119.863 164.646 133.749 172.783 145.124 174.362C155.326 175.779 163.18 170.435 165.811 160.355C167.835 152.583 165.932 138.211 161.115 124.974C160.427 123.111 159.941 121.533 159.981 121.492C160.062 121.452 162.329 120.804 165.042 120.116C184.028 115.217 197.428 108.012 203.5 99.5507C211.313 88.6205 206.658 76.3139 191.355 67.3673C185.769 64.1287 177.025 60.6067 167.876 57.9754C165.244 57.2062 163.018 56.518 162.896 56.3966C162.775 56.3156 163.342 54.4534 164.111 52.3483C166.054 47.0047 167.835 40.2441 168.807 34.5361C171.924 16.2785 166.094 4.2148 153.261 2.19069C141.279 0.328498 122.373 9.80137 102.658 27.5326L99.5818 30.2854L96.9504 27.9375C89.0969 20.8531 86.8703 18.9099 83.1864 16.0761C67.8436 4.17432 54.444 -1.37176 44.9306 0.288015ZM55.2941 9.76089C62.4595 11.9469 73.2683 18.586 82.5792 26.5206C87.1132 30.3664 93.1046 35.9935 93.1046 36.3578C93.1046 36.5197 91.4044 38.4629 89.3802 40.6489C87.3156 42.835 84.3604 46.0331 82.7816 47.7738L79.9478 50.9314L74.5637 51.4982C67.7627 52.1864 61.9737 53.077 55.0512 54.3724C46.1046 56.0727 47.3191 56.3966 45.6593 51.984C41.3277 40.6489 39.344 32.512 38.9797 24.4965C38.7368 18.4241 39.1011 15.8737 40.7204 12.7971C43.1089 8.38449 47.6024 7.45339 55.2941 9.76089ZM155.286 11.6231C157.512 12.6756 159.253 14.9831 160.224 18.0193C161.682 22.8367 160.832 33.4835 158.241 42.5516C157.148 46.3974 154.597 53.8057 154.193 54.251C154.031 54.4534 151.723 54.251 148.889 53.7652C139.174 52.1054 130.753 51.1339 122.211 50.6076L117.475 50.3242L114.925 47.2475C113.508 45.5878 110.795 42.4706 108.893 40.3655L105.452 36.5602L108.083 34.1313C116.18 26.6825 127.474 18.667 135.004 15.0236C144.234 10.4896 150.752 9.39654 155.286 11.6231ZM101.323 44.6567C102.294 45.7497 103.792 47.369 104.642 48.3001L106.14 50.0408H99.177H92.2545L95.574 46.3974C97.3958 44.3733 99.0555 42.754 99.2175 42.754C99.4199 42.754 100.351 43.6041 101.323 44.6567ZM118.285 65.3027C127.069 77.083 135.49 89.9969 135.044 91.1304C134.316 93.0331 124.519 106.838 118.73 114.124L114.965 118.861L104.116 118.82C98.1649 118.78 91.5258 118.658 89.3802 118.496L85.4535 118.254L82.0934 114.003C75.6567 105.866 63.9573 88.8229 63.9573 87.568C63.9573 86.4345 75.3733 70.201 81.6886 62.3879L84.2795 59.1494L88.0038 58.9065C90.028 58.785 96.5456 58.6636 102.456 58.6231L113.224 58.5421L118.285 65.3027ZM133.587 60.1614C140.469 60.9306 150.144 62.4284 150.468 62.7118C150.873 63.1166 141.4 81.6575 140.55 82.1838C140.388 82.2648 139.255 80.7669 138.081 78.8643C135.733 75.0994 128.446 64.4525 126.057 61.2544C124.317 58.9469 123.669 59.0279 133.587 60.1614ZM71.568 61.4569C68.127 66.0314 64.5241 71.0512 61.9737 74.897C60.3544 77.2855 58.897 79.1072 58.6946 78.9452C57.8445 78.0141 50.3957 63.8048 50.7601 63.8048C50.8815 63.8048 52.9461 63.4 55.3346 62.9547C59.2614 62.1855 70.5964 60.3233 72.0133 60.2019C72.3776 60.1614 72.2157 60.6067 71.568 61.4569ZM164.758 65.9909C181.963 70.7273 194.472 77.9332 197.752 84.9771C199.006 87.6489 199.006 89.754 197.752 92.4259C194.27 99.9961 181.316 107.04 161.196 112.343L156.621 113.558L156.298 112.667C155.366 110.319 150.428 100.32 147.999 95.8669L145.286 90.8875L147.27 87.568C150.509 82.2243 155.124 73.5611 157.269 68.9056C158.322 66.5576 159.334 64.6145 159.455 64.6145C159.617 64.6145 161.965 65.2217 164.758 65.9909ZM45.5783 72.3871C48.4121 78.0141 51.0839 83.0339 53.0676 86.313L53.7962 87.5275L51.1244 92.183C49.667 94.6929 46.8333 100.037 44.8901 103.963L41.3277 111.129L37.158 109.793C19.7101 104.206 8.49648 95.9883 8.49648 88.7015C8.49648 83.2768 14.6093 77.3664 25.5396 72.1442C30.0331 69.9986 40.3561 66.2338 41.773 66.2338C42.2993 66.2338 43.3518 67.9745 45.5783 72.3871ZM70.313 112.586C72.1348 115.015 73.5516 117.08 73.4707 117.161C73.0658 117.606 50.7601 113.801 50.0719 113.193C49.7075 112.869 52.4603 107.121 56.3466 100.158L58.7351 95.8264L62.9048 101.98C65.1718 105.38 68.5318 110.117 70.313 112.586ZM144.315 107.202C146.42 111.453 148.12 115.015 148.039 115.055C147.675 115.46 127.191 118.173 126.826 117.889C126.786 117.849 128.527 115.46 130.672 112.546C132.818 109.671 135.773 105.502 137.23 103.356C138.688 101.211 140.024 99.4698 140.186 99.4293C140.348 99.4293 142.21 102.911 144.315 107.202ZM53.2295 122.666C58.978 123.881 67.1959 125.095 75.2519 125.945C78.45 126.269 81.0814 126.552 81.1218 126.552C81.2028 126.552 82.8626 128.415 84.8462 130.682C86.8299 132.989 89.7041 136.147 91.202 137.766C92.7403 139.385 93.9143 140.883 93.8333 141.086C93.6309 141.774 85.4534 148.737 80.7575 152.259C62.4595 165.982 47.6024 170.395 41.8944 163.715C39.5465 160.962 39.0607 158.857 39.0607 151.652C39.0607 146.632 39.2631 144.527 39.9918 141.126C41.0443 136.309 43.1494 129.305 45.0116 124.488C46.1856 121.371 46.307 121.209 47.3191 121.452C47.8858 121.573 50.5577 122.099 53.2295 122.666ZM153.747 129.872C156.338 137.928 157.31 142.3 157.957 148.656C158.362 152.906 158.362 154 157.755 156.914C156.5 163.31 153.707 165.982 148.363 165.982C146.825 165.982 144.639 165.739 143.505 165.456C134.437 162.987 121.847 155.052 110.229 144.446L106.464 141.045L111.281 135.863C113.913 132.989 116.746 129.832 117.596 128.86L119.135 127.038L122.414 126.795C131.927 126.026 149.254 123.962 149.739 123.476C149.82 123.395 150.306 123.314 150.792 123.314C151.561 123.314 151.885 124.083 153.747 129.872ZM106.828 128.05C106.545 128.455 104.966 130.155 103.306 131.856L100.31 134.973L97.1933 131.734C95.4931 129.953 93.9548 128.253 93.7928 127.929C93.5094 127.443 94.6025 127.362 100.432 127.362C106.99 127.362 107.354 127.403 106.828 128.05Z" fill="#3483CB"/>
<path d="M60.5076 35.4841H56.3065V44.8532H51.033V19.2595H60.5428C63.5662 19.2595 65.8983 19.9333 67.5389 21.2809C69.1795 22.6286 69.9998 24.5329 69.9998 26.9938C69.9998 28.7399 69.619 30.1989 68.8572 31.3708C68.1072 32.5309 66.9647 33.4567 65.4295 34.1481L70.9666 44.6071V44.8532H65.3065L60.5076 35.4841ZM56.3065 31.2126H60.5604C61.8846 31.2126 62.91 30.8786 63.6365 30.2106C64.3631 29.5309 64.7264 28.5993 64.7264 27.4157C64.7264 26.2087 64.3807 25.2595 63.6893 24.5681C63.0096 23.8766 61.9608 23.5309 60.5428 23.5309H56.3065V31.2126Z" fill="#2A4B71"/>
<path d="M182.525 96.5428C182.443 97.8318 182.162 98.992 181.682 100.023C181.213 101.055 180.58 101.933 179.783 102.66C178.986 103.387 178.037 103.949 176.935 104.347C175.834 104.734 174.615 104.928 173.279 104.928C171.767 104.928 170.426 104.652 169.254 104.101C168.082 103.539 167.098 102.76 166.301 101.763C165.504 100.756 164.894 99.5486 164.473 98.1424C164.051 96.7361 163.84 95.1893 163.84 93.5018V90.0565C163.84 88.3572 164.062 86.8045 164.508 85.3983C164.953 83.992 165.586 82.785 166.406 81.7772C167.226 80.7693 168.217 79.9901 169.377 79.4393C170.549 78.8768 171.861 78.5955 173.314 78.5955C174.721 78.5955 175.969 78.7947 177.058 79.1932C178.16 79.5916 179.098 80.16 179.871 80.8983C180.644 81.6365 181.254 82.5389 181.699 83.6053C182.144 84.6717 182.426 85.8729 182.543 87.2088H177.621C177.574 86.4471 177.457 85.7791 177.269 85.2049C177.094 84.6307 176.83 84.1561 176.478 83.7811C176.139 83.3943 175.705 83.1072 175.178 82.9197C174.662 82.7205 174.041 82.6209 173.314 82.6209C172.553 82.6209 171.891 82.785 171.328 83.1131C170.766 83.4412 170.297 83.9217 169.922 84.5545C169.558 85.1873 169.289 85.9666 169.113 86.8924C168.937 87.8065 168.849 88.8494 168.849 90.0213V93.5018C168.849 96.0213 169.201 97.8846 169.904 99.0916C170.619 100.299 171.744 100.902 173.279 100.902C174.568 100.902 175.588 100.562 176.338 99.8826C177.088 99.1912 177.504 98.0779 177.586 96.5428H182.525Z" fill="#2A4B71"/>
<path d="M31.7571 100.568H43.7454V104.558H26.8V78.9647H31.7571V100.568Z" fill="#2A4B71"/>
<path d="M151.515 134.6H143.675V155.922H138.402V134.6H130.668V130.329H151.515V134.6Z" fill="#2A4B71"/>
<path d="M61.9085 155.922H56.6351V130.329H61.9085V155.922Z" fill="#2A4B71"/>
<path d="M106.484 97.8787C106.484 97.4217 106.402 96.994 106.238 96.5955C106.086 96.1971 105.817 95.8279 105.43 95.4881C105.055 95.1365 104.557 94.8201 103.936 94.5389C103.326 94.2459 102.565 93.9764 101.651 93.7303C100.537 93.4256 99.4708 93.0447 98.4513 92.5877C97.4435 92.1307 96.5529 91.5799 95.7794 90.9354C95.006 90.2908 94.3849 89.5408 93.9161 88.6854C93.4591 87.8299 93.2306 86.8455 93.2306 85.7322C93.2306 84.6541 93.4591 83.6756 93.9161 82.7967C94.3732 81.9178 95.006 81.1678 95.8146 80.5467C96.6232 79.9256 97.5782 79.451 98.6798 79.1229C99.7814 78.783 100.977 78.6131 102.266 78.6131C103.602 78.6131 104.82 78.8065 105.922 79.1932C107.035 79.5799 107.99 80.1248 108.787 80.8279C109.584 81.5193 110.205 82.3455 110.651 83.3065C111.096 84.2674 111.318 85.3221 111.318 86.4705H106.502C106.479 85.8963 106.373 85.369 106.186 84.8885C106.01 84.408 105.74 83.9979 105.377 83.658C105.026 83.3065 104.58 83.0369 104.041 82.8494C103.514 82.6502 102.893 82.5506 102.178 82.5506C101.522 82.5506 100.936 82.6326 100.42 82.7967C99.9161 82.949 99.4884 83.1717 99.1368 83.4647C98.7853 83.7459 98.5157 84.0858 98.3282 84.4842C98.1525 84.8709 98.0646 85.2928 98.0646 85.7498C98.0646 86.2303 98.1818 86.6639 98.4161 87.0506C98.6622 87.4373 99.0138 87.7889 99.4708 88.1053C99.9279 88.41 100.479 88.6912 101.123 88.949C101.779 89.2068 102.518 89.4471 103.338 89.6697C104.51 90.0096 105.588 90.4256 106.572 90.9178C107.557 91.41 108.401 91.9959 109.104 92.6756C109.818 93.3436 110.369 94.1111 110.756 94.9783C111.154 95.8338 111.354 96.7889 111.354 97.8436C111.354 98.9686 111.125 99.9705 110.668 100.849C110.223 101.717 109.602 102.455 108.805 103.064C108.008 103.662 107.059 104.119 105.957 104.435C104.856 104.74 103.654 104.892 102.354 104.892C101.545 104.892 100.736 104.816 99.9279 104.664C99.131 104.523 98.3634 104.301 97.6251 103.996C96.8986 103.691 96.2189 103.31 95.5861 102.853C94.9532 102.396 94.4025 101.863 93.9337 101.254C93.4767 100.644 93.1134 99.9529 92.8439 99.1795C92.5861 98.4061 92.4572 97.5506 92.4572 96.6131H97.3087C97.3322 97.3865 97.4669 98.0486 97.713 98.5994C97.9591 99.1502 98.299 99.6014 98.7325 99.9529C99.1779 100.305 99.7052 100.562 100.315 100.726C100.936 100.89 101.615 100.972 102.354 100.972C103.01 100.972 103.59 100.896 104.094 100.744C104.609 100.592 105.043 100.381 105.395 100.111C105.746 99.8416 106.016 99.5193 106.203 99.1443C106.391 98.7576 106.484 98.3358 106.484 97.8787Z" fill="#2A4B71"/>
<path d="M132.25 44.8532V19.2595H140.125C142.375 19.2595 144.384 19.7692 146.154 20.7888C147.935 21.7966 149.324 23.238 150.32 25.113C151.316 26.9763 151.814 29.0974 151.814 31.4763V32.654C151.814 35.0329 151.322 37.1481 150.338 38.9997C149.365 40.8513 147.988 42.2868 146.207 43.3063C144.425 44.3259 142.416 44.8415 140.177 44.8532H132.25ZM137.523 23.5309V40.6169H140.072C142.134 40.6169 143.711 39.9431 144.8 38.5954C145.89 37.2477 146.447 35.32 146.47 32.8122V31.4587C146.47 28.8571 145.931 26.8884 144.853 25.5524C143.775 24.2048 142.199 23.5309 140.125 23.5309H137.523Z" fill="#2A4B71"/>
</svg>
