<svg width="472" height="400" viewBox="0 0 472 400" fill="none" xmlns="http://www.w3.org/2000/svg">
<path d="M102.305 0.656134C86.2598 3.42253 74.5487 15.6869 70.4913 34.1295C68.3704 43.7197 69.0159 65.0209 71.7823 78.484C75.3786 95.1746 81.4647 114.908 88.0118 130.769C88.5651 132.06 87.2741 132.705 80.4504 134.826C51.6799 143.494 28.9032 155.666 15.1635 169.683C-4.66235 189.693 -5.03121 212.839 13.9647 233.494C24.477 244.929 48.0835 258.207 72.6122 266.507C79.8049 268.904 85.7065 271.209 85.7065 271.486C85.7065 271.855 83.6778 278.125 81.0958 285.502C72.2434 311.414 68.8315 328.658 68.8315 346.824C68.9237 365.82 72.8889 377.531 82.479 387.398C95.7577 401.045 118.534 403.074 143.801 392.839C166.577 383.617 193.688 365.82 218.032 344.058C222.643 339.908 226.885 336.22 227.53 335.851C228.268 335.39 231.495 337.603 236.752 342.398C272.991 375.041 304.62 393.576 330.532 397.173C353.77 400.4 371.659 388.228 377.653 365.267C382.264 347.562 377.93 314.826 366.957 284.673C365.389 280.431 364.282 276.834 364.375 276.742C364.559 276.65 369.723 275.175 375.901 273.607C419.149 262.449 449.672 246.035 463.504 226.763C481.301 201.865 470.696 173.832 435.84 153.453C423.114 146.076 403.196 138.054 382.356 132.06C376.362 130.308 371.291 128.74 371.014 128.464C370.737 128.279 372.028 124.037 373.78 119.242C378.207 107.07 382.264 91.6705 384.477 78.6684C391.577 37.0803 378.299 9.60081 349.067 4.99015C321.772 0.748347 278.709 22.3262 233.801 62.7156L226.793 68.9861L220.799 63.6377C202.909 47.5004 197.838 43.0742 189.446 36.6192C154.498 9.50859 123.975 -3.1246 102.305 0.656134ZM125.911 22.234C142.233 27.2135 166.854 42.3365 188.063 60.4102C198.391 69.1705 212.038 81.9881 212.038 82.818C212.038 83.1869 208.166 87.6131 203.555 92.5926C198.852 97.5721 192.12 104.857 188.524 108.822L182.069 116.015L169.805 117.306C154.313 118.873 141.127 120.902 125.358 123.853C104.979 127.726 107.745 128.464 103.965 118.412C94.0979 92.5926 89.5795 74.0578 88.7495 55.7996C88.1963 41.9676 89.0262 36.1582 92.7147 29.15C98.1553 19.0988 108.391 16.9779 125.911 22.234ZM353.678 26.4758C358.75 28.8733 362.715 34.1295 364.928 41.0455C368.248 52.0188 366.311 76.2709 360.409 96.9266C357.92 105.687 352.11 122.562 351.188 123.576C350.819 124.037 345.563 123.576 339.108 122.47C316.977 118.689 297.797 116.476 278.34 115.277L267.551 114.632L261.741 107.623C258.514 103.843 252.336 96.7422 248.002 91.9471L240.163 83.2791L246.157 77.7463C264.6 60.7791 290.327 42.5209 307.479 34.2217C328.504 23.8938 343.35 21.4041 353.678 26.4758ZM230.758 101.722C232.971 104.211 236.383 107.9 238.319 110.021L241.731 113.986H225.87H210.102L217.663 105.687C221.813 101.076 225.594 97.3877 225.963 97.3877C226.424 97.3877 228.545 99.3242 230.758 101.722ZM269.395 148.75C289.405 175.584 308.586 205 307.571 207.582C305.911 211.916 283.596 243.361 270.409 259.959L261.834 270.748L237.12 270.656C223.565 270.564 208.442 270.287 203.555 269.918L194.61 269.365L186.957 259.683C172.295 241.148 145.645 202.326 145.645 199.468C145.645 196.886 171.649 159.908 186.034 142.111L191.936 134.734L200.42 134.181C205.03 133.904 219.877 133.627 233.34 133.535L257.868 133.351L269.395 148.75ZM304.252 137.039C319.928 138.791 341.967 142.203 342.704 142.849C343.627 143.771 322.049 186.004 320.112 187.203C319.743 187.388 317.161 183.976 314.487 179.642C309.139 171.066 292.541 146.814 287.1 139.529C283.135 134.273 281.659 134.457 304.252 137.039ZM162.981 139.99C155.143 150.41 146.936 161.845 141.127 170.605C137.438 176.045 134.118 180.195 133.657 179.826C131.721 177.705 114.754 145.339 115.584 145.339C115.86 145.339 120.563 144.416 126.004 143.402C134.948 141.65 160.768 137.408 163.995 137.132C164.825 137.039 164.457 138.054 162.981 139.99ZM375.256 150.318C414.446 161.107 442.94 177.521 450.409 193.566C453.268 199.652 453.268 204.447 450.409 210.533C442.479 227.777 412.971 243.822 367.141 255.902L356.721 258.668L355.983 256.64C353.862 251.291 342.612 228.515 337.079 218.371L330.901 207.029L335.42 199.468C342.797 187.295 353.309 167.562 358.196 156.957C360.594 151.609 362.899 147.183 363.176 147.183C363.545 147.183 368.893 148.566 375.256 150.318ZM103.78 164.888C110.235 177.705 116.321 189.14 120.84 196.609L122.5 199.375L116.413 209.98C113.094 215.697 106.639 227.869 102.213 236.814L94.0979 253.136L84.5999 250.093C44.8561 237.367 19.3131 218.648 19.3131 202.05C19.3131 189.693 33.2372 176.23 58.1348 164.334C68.3704 159.447 91.8848 150.871 95.1122 150.871C96.311 150.871 98.7086 154.836 103.78 164.888ZM160.122 256.455C164.272 261.988 167.5 266.691 167.315 266.875C166.393 267.89 115.584 259.222 114.016 257.839C113.186 257.101 119.457 244.007 128.309 228.146L133.75 218.279L143.247 232.295C148.411 240.041 156.065 250.83 160.122 256.455ZM328.688 244.191C333.483 253.873 337.356 261.988 337.172 262.08C336.342 263.002 289.682 269.181 288.852 268.535C288.76 268.443 292.725 263.002 297.612 256.363C302.5 249.816 309.231 240.318 312.551 235.431C315.87 230.543 318.914 226.578 319.282 226.486C319.651 226.486 323.893 234.416 328.688 244.191ZM121.209 279.416C134.303 282.183 153.022 284.949 171.372 286.886C178.657 287.623 184.651 288.269 184.743 288.269C184.928 288.269 188.709 292.511 193.227 297.675C197.745 302.931 204.293 310.123 207.704 313.812C211.209 317.5 213.883 320.912 213.698 321.373C213.237 322.941 194.61 338.802 183.913 346.824C142.233 378.084 108.391 388.136 95.3889 372.92C90.0405 366.65 88.934 361.855 88.934 345.441C88.934 334.007 89.395 329.211 91.0549 321.466C93.4524 310.492 98.2475 294.539 102.489 283.566C105.163 276.466 105.44 276.097 107.745 276.65C109.036 276.927 115.122 278.125 121.209 279.416ZM350.174 295.83C356.075 314.181 358.289 324.14 359.764 338.617C360.686 348.3 360.686 350.789 359.303 357.429C356.444 371.998 350.082 378.084 337.909 378.084C334.405 378.084 329.426 377.531 326.844 376.886C306.188 371.261 277.51 353.187 251.045 329.027L242.469 321.281L253.442 309.478C259.436 302.931 265.891 295.738 267.827 293.525L271.332 289.375L278.801 288.822C300.471 287.07 339.938 282.367 341.045 281.261C341.229 281.076 342.336 280.892 343.442 280.892C345.194 280.892 345.932 282.644 350.174 295.83ZM243.299 291.681C242.653 292.603 239.057 296.476 235.276 300.349L228.452 307.449L221.352 300.072C217.479 296.015 213.975 292.142 213.606 291.404C212.961 290.298 215.45 290.113 228.729 290.113C243.668 290.113 244.498 290.205 243.299 291.681Z" fill="#EAEEF1"/>
<path d="M134.52 75.2617H126.117V94H115.57V42.8125H134.59C140.637 42.8125 145.301 44.1602 148.582 46.8555C151.863 49.5508 153.504 53.3594 153.504 58.2812C153.504 61.7734 152.742 64.6914 151.219 67.0352C149.719 69.3555 147.434 71.207 144.363 72.5898L155.438 93.5078V94H144.117L134.52 75.2617ZM126.117 66.7188H134.625C137.273 66.7188 139.324 66.0508 140.777 64.7148C142.23 63.3555 142.957 61.4922 142.957 59.125C142.957 56.7109 142.266 54.8125 140.883 53.4297C139.523 52.0469 137.426 51.3555 134.59 51.3555H126.117V66.7188Z" fill="#9FC2EB"/>
<path d="M410.148 213.969C409.984 216.547 409.422 218.867 408.461 220.93C407.523 222.992 406.258 224.75 404.664 226.203C403.07 227.656 401.172 228.781 398.969 229.578C396.766 230.352 394.328 230.738 391.656 230.738C388.633 230.738 385.949 230.188 383.605 229.086C381.262 227.961 379.293 226.402 377.699 224.41C376.105 222.395 374.887 219.98 374.043 217.168C373.199 214.355 372.777 211.262 372.777 207.887V200.996C372.777 197.598 373.223 194.492 374.113 191.68C375.004 188.867 376.27 186.453 377.91 184.438C379.551 182.422 381.531 180.863 383.852 179.762C386.195 178.637 388.82 178.074 391.727 178.074C394.539 178.074 397.035 178.473 399.215 179.27C401.418 180.066 403.293 181.203 404.84 182.68C406.387 184.156 407.605 185.961 408.496 188.094C409.387 190.227 409.949 192.629 410.184 195.301H400.34C400.246 193.777 400.012 192.441 399.637 191.293C399.285 190.145 398.758 189.195 398.055 188.445C397.375 187.672 396.508 187.098 395.453 186.723C394.422 186.324 393.18 186.125 391.727 186.125C390.203 186.125 388.879 186.453 387.754 187.109C386.629 187.766 385.691 188.727 384.941 189.992C384.215 191.258 383.676 192.816 383.324 194.668C382.973 196.496 382.797 198.582 382.797 200.926V207.887C382.797 212.926 383.5 216.652 384.906 219.066C386.336 221.48 388.586 222.688 391.656 222.688C394.234 222.688 396.273 222.008 397.773 220.648C399.273 219.266 400.105 217.039 400.27 213.969H410.148Z" fill="#9FC2EB"/>
<path d="M70.1875 222.02H94.1641V230H60.2734V178.812H70.1875V222.02Z" fill="#9FC2EB"/>
<path d="M339.102 304.355H323.422V347H312.875V304.355H297.406V295.812H339.102V304.355Z" fill="#9FC2EB"/>
<path d="M138.785 347H128.238V295.812H138.785V347Z" fill="#9FC2EB"/>
<path d="M238.184 216.641C238.184 215.727 238.02 214.871 237.691 214.074C237.387 213.277 236.848 212.539 236.074 211.859C235.324 211.156 234.328 210.523 233.086 209.961C231.867 209.375 230.344 208.836 228.516 208.344C226.289 207.734 224.156 206.973 222.117 206.059C220.102 205.145 218.32 204.043 216.773 202.754C215.227 201.465 213.984 199.965 213.047 198.254C212.133 196.543 211.676 194.574 211.676 192.348C211.676 190.191 212.133 188.234 213.047 186.477C213.961 184.719 215.227 183.219 216.844 181.977C218.461 180.734 220.371 179.785 222.574 179.129C224.777 178.449 227.168 178.109 229.746 178.109C232.418 178.109 234.855 178.496 237.059 179.27C239.285 180.043 241.195 181.133 242.789 182.539C244.383 183.922 245.625 185.574 246.516 187.496C247.406 189.418 247.852 191.527 247.852 193.824H238.219C238.172 192.676 237.961 191.621 237.586 190.66C237.234 189.699 236.695 188.879 235.969 188.199C235.266 187.496 234.375 186.957 233.297 186.582C232.242 186.184 231 185.984 229.57 185.984C228.258 185.984 227.086 186.148 226.055 186.477C225.047 186.781 224.191 187.227 223.488 187.812C222.785 188.375 222.246 189.055 221.871 189.852C221.52 190.625 221.344 191.469 221.344 192.383C221.344 193.344 221.578 194.211 222.047 194.984C222.539 195.758 223.242 196.461 224.156 197.094C225.07 197.703 226.172 198.266 227.461 198.781C228.773 199.297 230.25 199.777 231.891 200.223C234.234 200.902 236.391 201.734 238.359 202.719C240.328 203.703 242.016 204.875 243.422 206.234C244.852 207.57 245.953 209.105 246.727 210.84C247.523 212.551 247.922 214.461 247.922 216.57C247.922 218.82 247.465 220.824 246.551 222.582C245.66 224.316 244.418 225.793 242.824 227.012C241.23 228.207 239.332 229.121 237.129 229.754C234.926 230.363 232.523 230.668 229.922 230.668C228.305 230.668 226.688 230.516 225.07 230.211C223.477 229.93 221.941 229.484 220.465 228.875C219.012 228.266 217.652 227.504 216.387 226.59C215.121 225.676 214.02 224.609 213.082 223.391C212.168 222.172 211.441 220.789 210.902 219.242C210.387 217.695 210.129 215.984 210.129 214.109H219.832C219.879 215.656 220.148 216.98 220.641 218.082C221.133 219.184 221.812 220.086 222.68 220.789C223.57 221.492 224.625 222.008 225.844 222.336C227.086 222.664 228.445 222.828 229.922 222.828C231.234 222.828 232.395 222.676 233.402 222.371C234.434 222.066 235.301 221.645 236.004 221.105C236.707 220.566 237.246 219.922 237.621 219.172C237.996 218.398 238.184 217.555 238.184 216.641Z" fill="#9FC2EB"/>
<path d="M300.57 94V42.8125H316.32C320.82 42.8125 324.84 43.832 328.379 45.8711C331.941 47.8867 334.719 50.7695 336.711 54.5195C338.703 58.2461 339.699 62.4883 339.699 67.2461V69.6016C339.699 74.3594 338.715 78.5898 336.746 82.293C334.801 85.9961 332.047 88.8672 328.484 90.9062C324.922 92.9453 320.902 93.9766 316.426 94H300.57ZM311.117 51.3555V85.5273H316.215C320.34 85.5273 323.492 84.1797 325.672 81.4844C327.852 78.7891 328.965 74.9336 329.012 69.918V67.2109C329.012 62.0078 327.934 58.0703 325.777 55.3984C323.621 52.7031 320.469 51.3555 316.32 51.3555H311.117Z" fill="#9FC2EB"/>
</svg>
